General

 Complete name : Snow White And The Huntsman(2012) 1080p[Dual 

 Audio][ENG(5.1)-HINDI(DTS)]~{PHDR}~
 Format : Matroska
 Format version : Version 2
 File size : 4.38 GiB
 Duration : 2h 7mn
 Overall bit rate : 4 924 Kbps


 Video
 ID : 1
 Format : AVC
 Format/Info : Advanced Video Codec
 Format profile : High@L4.1
 Format settings, CABAC : Yes
 Format settings, ReFrames : 4 frames
 Muxing mode : Header stripping
 Codec ID : V_MPEG4/ISO/AVC
 Duration : 2h 7mn
 Bit rate : 3 700 Kbps
 Width : 1 920 pixels
 Height : 816 pixels
 Display aspect ratio : 2.35:1
 Frame rate mode : Constant
 Frame rate : 23.976 fps
 Color space : YUV
 Chroma subsampling : 4:2:0
 Bit depth : 8 bits
 Scan type : Progressive
 Bits/(Pixel*Frame) : 0.098
 Stream size : 3.22 GiB (74%)
 Title : Snow White And The Huntsman(2012) 1080p[Dual 

 Audio][ENG(5.1)-HINDI(DTS)]~{PHDR}~
 Default : Yes
 Forced : No

 Audio #1
 ID : 2
 Format : DTS
 Format/Info : Digital Theater Systems
 Muxing mode : Header stripping
 Codec ID : A_DTS
 Duration : 2h 7mn
 Bit rate mode : Constant
 Bit rate : 755 Kbps
 Channel(s) : 6 channels
 Channel positions : Front: L C R, Side: L R, LFE
 Sampling rate : 48.0 KHz
 Bit depth : 24 bits
 Compression mode : Lossy
 Stream size : 687 MiB (15%)
 Title : BLURAY DTS~{PHDR}~
 Language : Hindi
 Default : Yes
 Forced : No

 Audio #2
 ID : 3
 Format : AC-3
 Format/Info : Audio Coding 3
 Mode extension : CM (complete main)
 Format settings, Endianness : Big
 Muxing mode : Header stripping
 Codec ID : A_AC3
 Duration : 2h 7mn
 Bit rate mode : Constant
 Bit rate : 448 Kbps
 Channel(s) : 6 channels
 Channel positions : Front: L C R, Side: L R, LFE
 Sampling rate : 48.0 KHz
 Bit depth : 16 bits
 Compression mode : Lossy
 Stream size : 408 MiB (9%)
 Title : BLURAY~{PHDR}~
 Language : English
 Default : No
 Forced : No

 Text #1
 ID : 4
 Format : PGS
 Muxing mode : zlib
 Codec ID : S_HDMV/PGS
 Codec ID/Info : The same subtitle format used on BDs/HD-DVDs
 Title : BLURAY
 Language : Hindi
 Default : Yes
 Forced : No

 Text #2
 ID : 5
 Format : PGS
 Muxing mode : zlib
 Codec ID : S_HDMV/PGS
 Codec ID/Info : The same subtitle format used on BDs/HD-DVDs
 Title : BLURAY PSDH
 Language : English
 Default : No
 Forced : No

screens


